<?xml version="1.0"?>
<svg xmlns="http://www.w3.org/2000/svg" xmlns:xlink="http://www.w3.org/1999/xlink" xmlns:svgjs="http://svgjs.com/svgjs" version="1.1" width="512" height="512" x="0" y="0" viewBox="0 0 24 24" style="enable-background:new 0 0 512 512" xml:space="preserve"><g><path xmlns="http://www.w3.org/2000/svg" d="m12 0a12 12 0 1 0 12 12 12.013 12.013 0 0 0 -12-12zm0 22a10 10 0 1 1 10-10 10.011 10.011 0 0 1 -10 10zm5-10a1 1 0 0 1 -1 1h-3v3a1 1 0 0 1 -2 0v-3h-3a1 1 0 0 1 0-2h3v-3a1 1 0 0 1 2 0v3h3a1 1 0 0 1 1 1z" fill="#ffffff" data-original="#000000"/></g></svg>
