<svg width="0" height="0" class="hidden">
  <symbol xmlns="http://www.w3.org/2000/svg" xmlns:xlink="http://www.w3.org/1999/xlink" xmlnsSvgjs="http://svgjs.com/svgjs" version="1.1" x="0" y="0" xml:space="preserve" viewBox="0 0 24 24" id="add">
    <g>
      <path xmlns="http://www.w3.org/2000/svg" d="m12 0a12 12 0 1 0 12 12 12.013 12.013 0 0 0 -12-12zm0 22a10 10 0 1 1 10-10 10.011 10.011 0 0 1 -10 10zm5-10a1 1 0 0 1 -1 1h-3v3a1 1 0 0 1 -2 0v-3h-3a1 1 0 0 1 0-2h3v-3a1 1 0 0 1 2 0v3h3a1 1 0 0 1 1 1z" fill="#2e3342" data-original="#000000"></path>
    </g>
  </symbol>
  <symbol xmlns="http://www.w3.org/2000/svg" xmlns:xlink="http://www.w3.org/1999/xlink" xmlnsSvgjs="http://svgjs.com/svgjs" version="1.1" x="0" y="0" xml:space="preserve" viewBox="0 0 24 24" id="add-dark">
    <g>
      <path xmlns="http://www.w3.org/2000/svg" d="m12 0a12 12 0 1 0 12 12 12.013 12.013 0 0 0 -12-12zm0 22a10 10 0 1 1 10-10 10.011 10.011 0 0 1 -10 10zm5-10a1 1 0 0 1 -1 1h-3v3a1 1 0 0 1 -2 0v-3h-3a1 1 0 0 1 0-2h3v-3a1 1 0 0 1 2 0v3h3a1 1 0 0 1 1 1z" fill="#ffffff" data-original="#000000"></path>
    </g>
  </symbol>
  <symbol xmlns="http://www.w3.org/2000/svg" xmlns:xlink="http://www.w3.org/1999/xlink" xmlnsSvgjs="http://svgjs.com/svgjs" version="1.1" x="0" y="0" xml:space="preserve" viewBox="0 0 24 24" id="dark-mode">
    <g>
      <path xmlns="http://www.w3.org/2000/svg" d="M15,24a12.021,12.021,0,0,1-8.914-3.966,11.9,11.9,0,0,1-3.02-9.309A12.122,12.122,0,0,1,13.085.152a13.061,13.061,0,0,1,5.031.205,2.5,2.5,0,0,1,1.108,4.226c-4.56,4.166-4.164,10.644.807,14.41a2.5,2.5,0,0,1-.7,4.32A13.894,13.894,0,0,1,15,24Zm.076-22a10.793,10.793,0,0,0-1.677.127,10.093,10.093,0,0,0-8.344,8.8A9.927,9.927,0,0,0,7.572,18.7,10.476,10.476,0,0,0,18.664,21.43a.5.5,0,0,0,.139-.857c-5.929-4.478-6.4-12.486-.948-17.449a.459.459,0,0,0,.128-.466.49.49,0,0,0-.356-.361A10.657,10.657,0,0,0,15.076,2Z" fill="#2e3342" data-original="#000000"></path>
    </g>
  </symbol>
  <symbol xmlns="http://www.w3.org/2000/svg" xmlns:xlink="http://www.w3.org/1999/xlink" xmlnsSvgjs="http://svgjs.com/svgjs" version="1.1" x="0" y="0" xml:space="preserve" viewBox="0 0 24 24" id="light-mode">
    <g>
      <path xmlns="http://www.w3.org/2000/svg" d="M23,11H18.92a6.924,6.924,0,0,0-.429-1.607l3.527-2.044a1,1,0,1,0-1-1.731l-3.53,2.047a7.062,7.062,0,0,0-1.149-1.15l2.046-3.531a1,1,0,0,0-1.731-1L14.607,5.509A6.9,6.9,0,0,0,13,5.08V1a1,1,0,0,0-2,0V5.08a6.9,6.9,0,0,0-1.607.429L7.349,1.982a1,1,0,0,0-1.731,1L7.664,6.515a7.062,7.062,0,0,0-1.149,1.15L2.985,5.618a1,1,0,1,0-1,1.731L5.509,9.393A6.924,6.924,0,0,0,5.08,11H1a1,1,0,0,0,0,2H5.08a6.924,6.924,0,0,0,.429,1.607L1.982,16.651a1,1,0,1,0,1,1.731l3.53-2.047a7.062,7.062,0,0,0,1.149,1.15L5.618,21.016a1,1,0,0,0,1.731,1l2.044-3.527A6.947,6.947,0,0,0,11,18.92V23a1,1,0,0,0,2,0V18.92a6.947,6.947,0,0,0,1.607-.429l2.044,3.527a1,1,0,0,0,1.731-1l-2.046-3.531a7.062,7.062,0,0,0,1.149-1.15l3.53,2.047a1,1,0,1,0,1-1.731l-3.527-2.044A6.924,6.924,0,0,0,18.92,13H23A1,1,0,0,0,23,11ZM12,17c-6.608-.21-6.606-9.791,0-10C18.608,7.21,18.606,16.791,12,17Z" fill="#ffffff" data-original="#000000"></path>
    </g>
  </symbol>
  <symbol xmlns="http://www.w3.org/2000/svg" xmlns:xlink="http://www.w3.org/1999/xlink" xmlnsSvgjs="http://svgjs.com/svgjs" version="1.1" x="0" y="0" xml:space="preserve" viewBox="0 0 24 24" id="pin">
    <g>
      <path xmlns="http://www.w3.org/2000/svg" d="M1,24a1,1,0,0,0,.707-.293l6.619-6.619L9.574,18.38a5.169,5.169,0,0,0,3.605,1.614,3.991,3.991,0,0,0,1.339-.227,3.63,3.63,0,0,0,2.435-3.122,8.486,8.486,0,0,0-.222-3.027l-.214-1.042a1,1,0,0,1,.264-.943l1.587-1.588a.34.34,0,0,1,.236-.1.17.17,0,0,1,.167.065,3.077,3.077,0,0,0,3.971.432,3,3,0,0,0,.379-4.565L18.2.954a3.085,3.085,0,0,0-3.938-.4,3,3,0,0,0-.38,4.565l.076.076a.308.308,0,0,1,0,.434l-1.6,1.6a1,1,0,0,1-.954.261l-.817-.209a8.632,8.632,0,0,0-3.082-.233A3.863,3.863,0,0,0,4.25,9.634a4,4,0,0,0,.928,4.2l1.758,1.82L.293,22.293A1,1,0,0,0,1,24ZM6.135,10.3A1.856,1.856,0,0,1,7.713,9.036,6.7,6.7,0,0,1,8.406,9a6.622,6.622,0,0,1,1.681.217l.823.21a3.01,3.01,0,0,0,2.862-.785l1.6-1.6a2.31,2.31,0,0,0,0-3.262l-.076-.076a1,1,0,0,1,.134-1.528,1.084,1.084,0,0,1,1.356.19l4.924,4.924h0a1,1,0,0,1-.134,1.528,1.085,1.085,0,0,1-1.368-.2,2.212,2.212,0,0,0-1.584-.672,2.4,2.4,0,0,0-1.667.684l-1.586,1.587a3,3,0,0,0-.8,2.8l.219,1.058a6.646,6.646,0,0,1,.181,2.366,1.655,1.655,0,0,1-1.115,1.444,2.8,2.8,0,0,1-2.85-.9l-4.4-4.55A2.027,2.027,0,0,1,6.135,10.3Z" fill="#2e3342" data-original="#000000"></path>
    </g>
  </symbol>
  <symbol xmlns="http://www.w3.org/2000/svg" xmlns:xlink="http://www.w3.org/1999/xlink" xmlnsSvgjs="http://svgjs.com/svgjs" version="1.1" x="0" y="0" xml:space="preserve" viewBox="0 0 24 24" id="pin-dark">
    <g>
      <path xmlns="http://www.w3.org/2000/svg" d="M1,24a1,1,0,0,0,.707-.293l6.619-6.619L9.574,18.38a5.169,5.169,0,0,0,3.605,1.614,3.991,3.991,0,0,0,1.339-.227,3.63,3.63,0,0,0,2.435-3.122,8.486,8.486,0,0,0-.222-3.027l-.214-1.042a1,1,0,0,1,.264-.943l1.587-1.588a.34.34,0,0,1,.236-.1.17.17,0,0,1,.167.065,3.077,3.077,0,0,0,3.971.432,3,3,0,0,0,.379-4.565L18.2.954a3.085,3.085,0,0,0-3.938-.4,3,3,0,0,0-.38,4.565l.076.076a.308.308,0,0,1,0,.434l-1.6,1.6a1,1,0,0,1-.954.261l-.817-.209a8.632,8.632,0,0,0-3.082-.233A3.863,3.863,0,0,0,4.25,9.634a4,4,0,0,0,.928,4.2l1.758,1.82L.293,22.293A1,1,0,0,0,1,24ZM6.135,10.3A1.856,1.856,0,0,1,7.713,9.036,6.7,6.7,0,0,1,8.406,9a6.622,6.622,0,0,1,1.681.217l.823.21a3.01,3.01,0,0,0,2.862-.785l1.6-1.6a2.31,2.31,0,0,0,0-3.262l-.076-.076a1,1,0,0,1,.134-1.528,1.084,1.084,0,0,1,1.356.19l4.924,4.924h0a1,1,0,0,1-.134,1.528,1.085,1.085,0,0,1-1.368-.2,2.212,2.212,0,0,0-1.584-.672,2.4,2.4,0,0,0-1.667.684l-1.586,1.587a3,3,0,0,0-.8,2.8l.219,1.058a6.646,6.646,0,0,1,.181,2.366,1.655,1.655,0,0,1-1.115,1.444,2.8,2.8,0,0,1-2.85-.9l-4.4-4.55A2.027,2.027,0,0,1,6.135,10.3Z" fill="#ffffff" data-original="#000000"></path>
    </g>
  </symbol>
  <symbol xmlns="http://www.w3.org/2000/svg" xmlns:xlink="http://www.w3.org/1999/xlink" xmlnsSvgjs="http://svgjs.com/svgjs" version="1.1" x="0" y="0" xml:space="preserve" viewBox="0 0 24 24" id="search">
    <g>
      <path xmlns="http://www.w3.org/2000/svg" d="M23.707,22.293l-5.969-5.969a10.016,10.016,0,1,0-1.414,1.414l5.969,5.969a1,1,0,0,0,1.414-1.414ZM10,18a8,8,0,1,1,8-8A8.009,8.009,0,0,1,10,18Z" fill="#2e3342" data-original="#000000"></path>
    </g>
  </symbol>
  <symbol xmlns="http://www.w3.org/2000/svg" xmlns:xlink="http://www.w3.org/1999/xlink" xmlnsSvgjs="http://svgjs.com/svgjs" version="1.1" x="0" y="0" xml:space="preserve" viewBox="0 0 24 24" id="search-dark">
    <g>
      <path xmlns="http://www.w3.org/2000/svg" d="M23.707,22.293l-5.969-5.969a10.016,10.016,0,1,0-1.414,1.414l5.969,5.969a1,1,0,0,0,1.414-1.414ZM10,18a8,8,0,1,1,8-8A8.009,8.009,0,0,1,10,18Z" fill="#ffffff" data-original="#000000"></path>
    </g>
  </symbol>
  <symbol xmlns="http://www.w3.org/2000/svg" id="trash" viewBox="0 0 24 24">
    <path d="M21,4H17.9A5.009,5.009,0,0,0,13,0H11A5.009,5.009,0,0,0,6.1,4H3A1,1,0,0,0,3,6H4V19a5.006,5.006,0,0,0,5,5h6a5.006,5.006,0,0,0,5-5V6h1a1,1,0,0,0,0-2ZM11,2h2a3.006,3.006,0,0,1,2.829,2H8.171A3.006,3.006,0,0,1,11,2Zm7,17a3,3,0,0,1-3,3H9a3,3,0,0,1-3-3V6H18Z"></path>
    <path d="M10,18a1,1,0,0,0,1-1V11a1,1,0,0,0-2,0v6A1,1,0,0,0,10,18Z"></path>
    <path d="M14,18a1,1,0,0,0,1-1V11a1,1,0,0,0-2,0v6A1,1,0,0,0,14,18Z"></path>
  </symbol>
  <symbol xmlns="http://www.w3.org/2000/svg" xmlns:xlink="http://www.w3.org/1999/xlink" xmlnsSvgjs="http://svgjs.com/svgjs" version="1.1" x="0" y="0" xml:space="preserve" viewBox="0 0 24 24" id="trash-dark">
    <g>
      <path xmlns="http://www.w3.org/2000/svg" d="M21,4H17.9A5.009,5.009,0,0,0,13,0H11A5.009,5.009,0,0,0,6.1,4H3A1,1,0,0,0,3,6H4V19a5.006,5.006,0,0,0,5,5h6a5.006,5.006,0,0,0,5-5V6h1a1,1,0,0,0,0-2ZM11,2h2a3.006,3.006,0,0,1,2.829,2H8.171A3.006,3.006,0,0,1,11,2Zm7,17a3,3,0,0,1-3,3H9a3,3,0,0,1-3-3V6H18Z" fill="#ffffff" data-original="#000000"></path>
      <path xmlns="http://www.w3.org/2000/svg" d="M10,18a1,1,0,0,0,1-1V11a1,1,0,0,0-2,0v6A1,1,0,0,0,10,18Z" fill="#ffffff" data-original="#000000"></path>
      <path xmlns="http://www.w3.org/2000/svg" d="M14,18a1,1,0,0,0,1-1V11a1,1,0,0,0-2,0v6A1,1,0,0,0,14,18Z" fill="#ffffff" data-original="#000000"></path>
    </g>
  </symbol>
</svg>